<?xml version="1.0" standalone="no"?>
<!DOCTYPE svg PUBLIC "-//W3C//DTD SVG 20010904//EN" "http://www.w3.org/TR/2001/REC-SVG-20010904/DTD/svg10.dtd">
<svg version="1.0" xmlns="http://www.w3.org/2000/svg"
  width="512.000000pt" height="512.000000pt" viewBox="0 0 512.000000 512.000000"
  preserveAspectRatio="xMidYMid meet">

  <g transform="translate(0.000000,512.000000) scale(0.100000,-0.100000)"
    fill="#000000" stroke="none">
    <path
      d="M2320 5109 c-491 -47 -981 -246 -1366 -557 -599 -482 -954 -1224
-954 -1992 0 -577 204 -1155 568 -1606 482 -599 1224 -954 1992 -954 577 0
1155 204 1606 568 599 482 954 1224 954 1992 0 577 -204 1155 -568 1606 -433
538 -1071 879 -1767 944 -125 11 -340 11 -465 -1z m550 -1839 c0 -11 -9 -76
-20 -145 -39 -241 -130 -1089 -130 -1213 0 -21 -4 -42 -8 -48 -4 -7 -74 -24
-157 -39 -82 -14 -158 -29 -167 -31 -15 -5 -18 2 -18 41 0 92 59 620 76 678 6
19 -14 24 -21 5 -2 -7 -61 -174 -131 -370 l-127 -358 -112 0 c-61 0 -114 2
-116 5 -3 2 -2 39 3 82 4 43 16 193 28 333 11 140 23 270 26 288 8 51 -23 42
-36 -10 -80 -304 -184 -665 -193 -675 -6 -6 -197 -21 -278 -22 l-46 -1 79 248
c103 323 278 896 319 1045 l32 117 52 0 c29 0 121 7 205 15 84 9 155 13 158
11 5 -5 1 -34 -66 -489 -22 -142 -35 -260 -31 -262 13 -9 25 19 127 291 56
149 121 316 145 369 l42 98 159 23 c87 13 166 25 175 27 29 8 31 7 31 -13z
m627 -55 c166 -49 254 -193 254 -415 0 -119 -10 -180 -47 -295 -109 -338 -345
-603 -626 -703 -60 -21 -96 -26 -200 -30 -107 -4 -128 -2 -128 10 0 8 18 106
40 219 53 269 101 524 139 739 17 96 40 225 51 286 11 61 20 120 20 132 0 29
12 34 125 53 130 22 305 24 372 4z" />
    <path
      d="M3275 2908 c-4 -24 -31 -153 -60 -288 -55 -251 -98 -467 -111 -554
l-7 -50 32 25 c52 41 119 137 176 254 121 247 174 486 129 581 -17 36 -82 74
-126 74 -23 0 -27 -5 -33 -42z" />
  </g>
</svg>